<svg xmlns="http://www.w3.org/2000/svg" height="32" width="24" viewBox="0 0 384 512">
  <!--!Font Awesome Free 6.7.2 by @fontawesome - https://fontawesome.com License - https://fontawesome.com/license/free Copyright 2025 Fonticons, Inc.-->
  <!-- <path 
    fill="#FFD43B" 
    stroke="#000000" 
    stroke-width="12" 
    stroke-linejoin="round" 
    stroke-linecap="round"
    d="M272 384c9.6-31.9 29.5-59.1 49.2-86.2c0 0 0 0 0 0c5.2-7.1 10.4-14.2 15.4-21.4c19.8-28.5 31.4-63 31.4-100.3C368 78.8 289.2 0 192 0S16 78.8 16 176c0 37.3 11.6 71.9 31.4 100.3c5 7.2 10.2 14.3 15.4 21.4c0 0 0 0 0 0c19.8 27.1 39.7 54.4 49.2 86.2l160 0zM192 512c44.2 0 80-35.8 80-80l0-16-160 0 0 16c0 44.2 35.8 80 80 80zM112 176c0 8.8-7.2 16-16 16s-16-7.2-16-16c0-61.9 50.1-112 112-112c8.8 0 16 7.2 16 16s-7.2 16-16 16c-44.2 0-80 35.8-80 80z"/>
</svg> -->

<svg xmlns="http://www.w3.org/2000/svg" viewBox="0 0 64 64" height="64" width="64">
  <defs>
    <radialGradient id="glow" cx="50%" cy="30%" r="50%">
      <stop offset="0%" stop-color="#fff" stop-opacity="0.8"/>
      <stop offset="100%" stop-color="#FFD43B" stop-opacity="1"/>
    </radialGradient>
  </defs>
  <ellipse cx="32" cy="28" rx="14" ry="22" fill="url(#glow)" stroke="#000" stroke-width="2"/>
  <rect x="28" y="48" width="8" height="12" fill="#555" stroke="#000" stroke-width="1"/>
</svg>

